<?xml version="1.0" encoding="UTF-8" standalone="no"?>
<!-- Created with Inkscape (http://www.inkscape.org/) -->

<svg
   xmlns:dc="http://purl.org/dc/elements/1.1/"
   xmlns:cc="http://creativecommons.org/ns#"
   xmlns:rdf="http://www.w3.org/1999/02/22-rdf-syntax-ns#"
   xmlns:svg="http://www.w3.org/2000/svg"
   xmlns="http://www.w3.org/2000/svg"
   xmlns:inkscape="http://www.inkscape.org/namespaces/inkscape"
   version="1.1"
   width="1600"
   height="600"
   id="svg2985">
  <defs
     id="defs2987">
    <marker
       refX="0"
       refY="0"
       orient="auto"
       id="Arrow1Lend"
       style="overflow:visible">
      <path
         d="M 0,0 5,-5 -12.5,0 5,5 0,0 z"
         transform="matrix(-0.8,0,0,-0.8,-10,0)"
         id="path3787"
         style="fill-rule:evenodd;stroke:#000000;stroke-width:1pt;marker-start:none" />
    </marker>
    <marker
       refX="0"
       refY="0"
       orient="auto"
       id="Arrow2Lstart"
       style="overflow:visible">
      <path
         d="M 8.7185878,4.0337352 -2.2072895,0.01601326 8.7185884,-4.0017078 c -1.7454984,2.3720609 -1.7354408,5.6174519 -6e-7,8.035443 z"
         transform="matrix(1.1,0,0,1.1,1.1,0)"
         id="path3802"
         style="font-size:12px;fill-rule:evenodd;stroke-width:0.625;stroke-linejoin:round" />
    </marker>
    <inkscape:path-effect
       effect="spiro"
       id="path-effect6615" />
    <inkscape:path-effect
       effect="spiro"
       id="path-effect6611" />
    <marker
       refX="0"
       refY="0"
       orient="auto"
       id="Arrow1Mend"
       style="overflow:visible">
      <path
         d="M 0,0 5,-5 -12.5,0 5,5 0,0 z"
         transform="matrix(-0.4,0,0,-0.4,-4,0)"
         id="path3793"
         style="fill-rule:evenodd;stroke:#000000;stroke-width:1pt;marker-start:none" />
    </marker>
    <marker
       refX="0"
       refY="0"
       orient="auto"
       id="Arrow1Mstart"
       style="overflow:visible">
      <path
         d="M 0,0 5,-5 -12.5,0 5,5 0,0 z"
         transform="matrix(0.4,0,0,0.4,4,0)"
         id="path3790"
         style="fill-rule:evenodd;stroke:#000000;stroke-width:1pt;marker-start:none" />
    </marker>
    <marker
       refX="0"
       refY="0"
       orient="auto"
       id="TriangleInS"
       style="overflow:visible">
      <path
         d="m 5.77,0 -8.65,5 0,-10 8.65,5 z"
         transform="scale(-0.2,-0.2)"
         id="path3924"
         style="fill-rule:evenodd;stroke:#000000;stroke-width:1pt;marker-start:none" />
    </marker>
    <marker
       refX="0"
       refY="0"
       orient="auto"
       id="TriangleInM"
       style="overflow:visible">
      <path
         d="m 5.77,0 -8.65,5 0,-10 8.65,5 z"
         transform="scale(-0.4,-0.4)"
         id="path3921"
         style="fill-rule:evenodd;stroke:#000000;stroke-width:1pt;marker-start:none" />
    </marker>
    <marker
       refX="0"
       refY="0"
       orient="auto"
       id="Arrow1Sstart"
       style="overflow:visible">
      <path
         d="M 0,0 5,-5 -12.5,0 5,5 0,0 z"
         transform="matrix(0.2,0,0,0.2,1.2,0)"
         id="path3796"
         style="fill-rule:evenodd;stroke:#000000;stroke-width:1pt;marker-start:none" />
    </marker>
    <marker
       refX="0"
       refY="0"
       orient="auto"
       id="Arrow1Lstart"
       style="overflow:visible">
      <path
         d="M 0,0 5,-5 -12.5,0 5,5 0,0 z"
         transform="matrix(0.8,0,0,0.8,10,0)"
         id="path3784"
         style="fill-rule:evenodd;stroke:#000000;stroke-width:1pt;marker-start:none" />
    </marker>
    <marker
       refX="0"
       refY="0"
       orient="auto"
       id="Arrow1Mendr"
       style="overflow:visible">
      <path
         d="M 0,0 5,-5 -12.5,0 5,5 0,0 z"
         transform="matrix(-0.4,0,0,-0.4,-4,0)"
         id="path6508"
         style="fill:#ff0000;fill-rule:evenodd;stroke:#ff0000;stroke-width:1pt;marker-start:none" />
    </marker>
    <marker
       refX="0"
       refY="0"
       orient="auto"
       id="Arrow1Mstartv"
       style="overflow:visible">
      <path
         d="M 0,0 5,-5 -12.5,0 5,5 0,0 z"
         transform="matrix(0.4,0,0,0.4,4,0)"
         id="path6552"
         style="fill:#ff0000;fill-rule:evenodd;stroke:#ff0000;stroke-width:1pt;marker-start:none" />
    </marker>
    <marker
       refX="0"
       refY="0"
       orient="auto"
       id="Arrow1Mendr-3"
       style="overflow:visible">
      <path
         d="M 0,0 5,-5 -12.5,0 5,5 0,0 z"
         transform="matrix(-0.4,0,0,-0.4,-4,0)"
         id="path6508-3"
         style="fill:#ff0000;fill-rule:evenodd;stroke:#ff0000;stroke-width:1pt;marker-start:none" />
    </marker>
    <marker
       refX="0"
       refY="0"
       orient="auto"
       id="Arrow1Mendr-7"
       style="overflow:visible">
      <path
         d="M 0,0 5,-5 -12.5,0 5,5 0,0 z"
         transform="matrix(-0.4,0,0,-0.4,-4,0)"
         id="path6508-0"
         style="fill:#ff0000;fill-rule:evenodd;stroke:#ff0000;stroke-width:1pt;marker-start:none" />
    </marker>
    <marker
       refX="0"
       refY="0"
       orient="auto"
       id="Arrow1Mendr-8"
       style="overflow:visible">
      <path
         d="M 0,0 5,-5 -12.5,0 5,5 0,0 z"
         transform="matrix(-0.4,0,0,-0.4,-4,0)"
         id="path6508-4"
         style="fill:#ff0000;fill-rule:evenodd;stroke:#ff0000;stroke-width:1pt;marker-start:none" />
    </marker>
    <marker
       refX="0"
       refY="0"
       orient="auto"
       id="Arrow1Mendr-1"
       style="overflow:visible">
      <path
         d="M 0,0 5,-5 -12.5,0 5,5 0,0 z"
         transform="matrix(-0.4,0,0,-0.4,-4,0)"
         id="path6508-6"
         style="fill:#ff0000;fill-rule:evenodd;stroke:#ff0000;stroke-width:1pt;marker-start:none" />
    </marker>
    <marker
       refX="0"
       refY="0"
       orient="auto"
       id="Arrow1Mendr-4"
       style="overflow:visible">
      <path
         d="M 0,0 5,-5 -12.5,0 5,5 0,0 z"
         transform="matrix(-0.4,0,0,-0.4,-4,0)"
         id="path6508-69"
         style="fill:#ff0000;fill-rule:evenodd;stroke:#ff0000;stroke-width:1pt;marker-start:none" />
    </marker>
    <marker
       refX="0"
       refY="0"
       orient="auto"
       id="marker3509"
       style="overflow:visible">
      <path
         d="M 0,0 5,-5 -12.5,0 5,5 0,0 z"
         transform="matrix(-0.4,0,0,-0.4,-4,0)"
         id="path3511"
         style="fill:#ff0000;fill-rule:evenodd;stroke:#ff0000;stroke-width:1pt;marker-start:none" />
    </marker>
    <marker
       refX="0"
       refY="0"
       orient="auto"
       id="marker3513"
       style="overflow:visible">
      <path
         d="M 0,0 5,-5 -12.5,0 5,5 0,0 z"
         transform="matrix(-0.4,0,0,-0.4,-4,0)"
         id="path3515"
         style="fill:#ff0000;fill-rule:evenodd;stroke:#ff0000;stroke-width:1pt;marker-start:none" />
    </marker>
  </defs>
  <metadata
     id="metadata2990">
    <rdf:RDF>
      <cc:Work
         rdf:about="">
        <dc:format>image/svg+xml</dc:format>
        <dc:type
           rdf:resource="http://purl.org/dc/dcmitype/StillImage" />
        <dc:title></dc:title>
      </cc:Work>
    </rdf:RDF>
  </metadata>
  <g
     id="layer2">
    <path
       d="m 392.21945,257.25687 a 2.9925187,2.9925187 0 1 1 -5.98504,0 2.9925187,2.9925187 0 1 1 5.98504,0 z"
       transform="matrix(1.48961,0,0,1.48961,-229.73797,-122.06426)"
       id="path6647"
       style="fill:none;stroke:#ff0000;stroke-width:0;stroke-miterlimit:4;stroke-opacity:1;stroke-dasharray:none;stroke-dashoffset:0" />
  </g>
  <g
     id="layer1">
    <path
       d="M 247.53015,174.02766 104.30894,401.95803"
       id="path2993"
       style="fill:none;stroke:#ff0000;stroke-width:10.42727089;stroke-linecap:butt;stroke-linejoin:miter;stroke-miterlimit:4;stroke-opacity:1;stroke-dasharray:none;marker-end:url(#Arrow1Mendr)" />
    <text
       x="27.719488"
       y="270.27274"
       id="text6579-6"
       xml:space="preserve"
       style="font-size:59.58440018px;font-style:normal;font-weight:bold;line-height:125.99999905%;letter-spacing:0px;word-spacing:0px;fill:#000000;fill-opacity:1;stroke:none;font-family:Bitstream Vera Sans;-inkscape-font-specification:Bitstream Vera Sans Bold"><tspan
         x="27.719488"
         y="270.27274"
         id="tspan6581-5"
         style="font-style:normal;font-variant:normal;font-weight:bold;font-stretch:normal;font-family:DejaVu Serif;-inkscape-font-specification:Bitstream Vera Sans Bold">-V<tspan
   dy="20"
   id="tspan9949"
   style="font-size:48px;line-height:125.99999905%">2</tspan></tspan></text>
    <path
       d="m 244.84821,175.45555 494.37425,-0.77206"
       id="path2993-7"
       style="fill:none;stroke:#ff0000;stroke-width:10.42727089;stroke-linecap:butt;stroke-linejoin:miter;stroke-miterlimit:4;stroke-opacity:1;stroke-dasharray:none;marker-end:url(#Arrow1Mendr)" />
    <text
       x="421.8074"
       y="126.65131"
       id="text6579-6-9"
       xml:space="preserve"
       style="font-size:59.58440018px;font-style:normal;font-weight:bold;line-height:125.99999905%;letter-spacing:0px;word-spacing:0px;fill:#000000;fill-opacity:1;stroke:none;font-family:Bitstream Vera Sans;-inkscape-font-specification:Bitstream Vera Sans Bold"><tspan
         x="421.8074"
         y="126.65131"
         id="tspan6581-5-8"
         style="font-style:normal;font-variant:normal;font-weight:bold;font-stretch:normal;font-family:DejaVu Serif;-inkscape-font-specification:Bitstream Vera Sans Bold">V<tspan
   dy="20"
   id="tspan9949-6"
   style="font-size:48px;line-height:125.99999905%">1</tspan></tspan></text>
    <path
       d="M 605.00788,417.46245 756.33521,175.80271"
       id="path2993-4"
       style="fill:none;stroke:#000000;stroke-width:2.15803719;stroke-linecap:butt;stroke-linejoin:miter;stroke-miterlimit:4;stroke-opacity:1;stroke-dasharray:none;marker-end:none" />
    <path
       d="M 95.292283,417.17192 606.26588,416.39986"
       id="path2993-7-8"
       style="fill:none;stroke:#000000;stroke-width:2.25449991;stroke-linecap:butt;stroke-linejoin:miter;stroke-miterlimit:4;stroke-opacity:1;stroke-dasharray:none;marker-end:none" />
    <path
       d="M 249.08204,181.28103 589.66376,406.05969"
       id="path2993-8"
       style="fill:none;stroke:#ff0000;stroke-width:10.42727089;stroke-linecap:butt;stroke-linejoin:miter;stroke-miterlimit:4;stroke-opacity:1;stroke-dasharray:62.56362534, 20.85454178;stroke-dashoffset:0;marker-end:url(#Arrow1Mendr)" />
    <text
       x="611.50574"
       y="494.66763"
       id="text6579-6-9-5"
       xml:space="preserve"
       style="font-size:59.58440018px;font-style:normal;font-weight:bold;line-height:125.99999905%;letter-spacing:0px;word-spacing:0px;fill:#000000;fill-opacity:1;stroke:none;font-family:Bitstream Vera Sans;-inkscape-font-specification:Bitstream Vera Sans Bold"><tspan
         x="611.50574"
         y="494.66763"
         id="tspan3119"
         style="font-style:normal;font-variant:normal;font-weight:bold;font-stretch:normal;font-family:DejaVu Serif;-inkscape-font-specification:DejaVu Serif Bold">V´</tspan></text>
    <g
       transform="translate(827.32483,-44.542989)"
       id="layer2-2">
      <path
         d="m 392.21945,257.25687 a 2.99252,2.99252 0 1 1 -5.98504,0 2.99252,2.99252 0 1 1 5.98504,0 z"
         transform="matrix(1.48961,0,0,1.48961,-273.73797,-117.06426)"
         id="path6647-2"
         style="fill:none;stroke:#ff0000;stroke-width:0;stroke-miterlimit:4;stroke-opacity:1;stroke-dasharray:none;stroke-dashoffset:0" />
    </g>
    <g
       transform="translate(841.53929,-48.283639)"
       id="layer1-4">
      <path
         d="M 621.54514,222.98223 481.2998,446.94477"
         id="path2993-77"
         style="fill:none;stroke:#ff0000;stroke-width:10.42727089;stroke-linecap:butt;stroke-linejoin:miter;stroke-miterlimit:4;stroke-opacity:1;stroke-dasharray:none;marker-end:url(#Arrow1Mendr)" />
      <text
         x="583.99988"
         y="404.40851"
         id="text6579-6-5"
         xml:space="preserve"
         style="font-size:59.58440018px;font-style:normal;font-weight:bold;line-height:125.99999905%;letter-spacing:0px;word-spacing:0px;fill:#000000;fill-opacity:1;stroke:none;font-family:Bitstream Vera Sans;-inkscape-font-specification:Bitstream Vera Sans Bold"><tspan
           x="583.99988"
           y="404.40851"
           id="tspan6581-5-4"
           style="font-style:normal;font-variant:normal;font-weight:bold;font-stretch:normal;font-family:DejaVu Serif;-inkscape-font-specification:Bitstream Vera Sans Bold">-V<tspan
   dy="20"
   id="tspan9949-8"
   style="font-size:48px;line-height:125.99999905%">2</tspan></tspan></text>
      <path
         d="m 55.595463,219.39859 546.511207,1.52019"
         id="path2993-7-1"
         style="fill:none;stroke:#ff0000;stroke-width:10.42727089;stroke-linecap:butt;stroke-linejoin:miter;stroke-miterlimit:4;stroke-opacity:1;stroke-dasharray:none;marker-end:url(#Arrow1Mendr)" />
      <text
         x="313.43588"
         y="171.43846"
         id="text6579-6-9-2"
         xml:space="preserve"
         style="font-size:59.58440018px;font-style:normal;font-weight:bold;line-height:125.99999905%;letter-spacing:0px;word-spacing:0px;fill:#000000;fill-opacity:1;stroke:none;font-family:Bitstream Vera Sans;-inkscape-font-specification:Bitstream Vera Sans Bold"><tspan
           x="313.43588"
           y="171.43846"
           id="tspan6581-5-8-8"
           style="font-style:normal;font-variant:normal;font-weight:bold;font-stretch:normal;font-family:DejaVu Serif;-inkscape-font-specification:Bitstream Vera Sans Bold">V<tspan
   dy="20"
   id="tspan9949-6-9"
   style="font-size:48px;line-height:125.99999905%">1</tspan></tspan></text>
      <path
         d="M 52.823123,219.77736 456.39072,456.39529"
         id="path2993-8-3"
         style="fill:none;stroke:#ff0000;stroke-width:10.42727089;stroke-linecap:butt;stroke-linejoin:miter;stroke-miterlimit:4;stroke-opacity:1;stroke-dasharray:62.56362534, 20.85454178;stroke-dashoffset:0;marker-end:url(#Arrow1Mendr)" />
      <text
         x="152.01305"
         y="407.16714"
         id="text6579-6-9-5-6"
         xml:space="preserve"
         style="font-size:59.58440018px;font-style:normal;font-weight:bold;line-height:125.99999905%;letter-spacing:0px;word-spacing:0px;fill:#000000;fill-opacity:1;stroke:none;font-family:Bitstream Vera Sans;-inkscape-font-specification:Bitstream Vera Sans Bold"><tspan
           x="152.01305"
           y="407.16714"
           id="tspan3044"
           style="font-style:normal;font-variant:normal;font-weight:bold;font-stretch:normal;font-family:DejaVu Serif;-inkscape-font-specification:DejaVu Serif Bold">V´</tspan></text>
    </g>
  </g>
  <g
     id="layer3" />
</svg>
